# Blender v2.77 (sub 0) OBJ File: 'arrowsBack.blend'
# www.blender.org
mtllib back.mtl
o BezierCurve_BezierCurve.001
v -0.984051 -0.764311 0.002167
v -0.947888 -0.729785 0.002175
v -0.007855 -1.760473 0.001934
v -0.007396 -1.710477 0.001945
v 0.988356 -0.780518 0.002160
v 0.952833 -0.745333 0.002168
v -0.947888 -0.729785 0.002175
v -0.933423 -0.715974 0.002178
v -0.007396 -1.710477 0.001945
v -0.007212 -1.690477 0.001950
v 0.952833 -0.745333 0.002168
v 0.938624 -0.731259 0.002172
v -0.933423 -0.715974 0.002178
v -0.897257 -0.681445 0.002186
v -0.007212 -1.690477 0.001950
v -0.006752 -1.640478 0.001962
v 0.938624 -0.731259 0.002172
v 0.903099 -0.696071 0.002180
v -0.067265 -1.694401 0.001949
v -0.017266 -1.694730 0.001949
v -0.067302 -1.700080 0.001948
v -0.017303 -1.700409 0.001948
v -0.017266 -1.694730 0.001949
v 0.002734 -1.694861 0.001949
v -0.017303 -1.700409 0.001948
v 0.002696 -1.700541 0.001948
v 0.002734 -1.694861 0.001949
v 0.052733 -1.695191 0.001949
v 0.002696 -1.700541 0.001948
v 0.052695 -1.700870 0.001948
vn 0.0000 0.0002 -1.0000
usemtl (null)
s 1
f 2//1 4//1 3//1 1//1
f 4//1 6//1 5//1 3//1
f 8//1 10//1 9//1 7//1
f 10//1 12//1 11//1 9//1
f 14//1 16//1 15//1 13//1
f 16//1 18//1 17//1 15//1
f 20//1 22//1 21//1 19//1
f 24//1 26//1 25//1 23//1
f 28//1 30//1 29//1 27//1
o BezierCurve.001_BezierCurve.002
v 0.073888 2.133435 -0.029769
v 0.058511 2.133451 0.039249
v 0.073459 2.049294 -0.029750
v 0.058083 2.049424 0.039269
v 0.072274 1.927678 -0.029722
v 0.056899 1.927859 0.039297
v 0.070487 1.775746 -0.029687
v 0.055111 1.775951 0.039332
v 0.068246 1.600722 -0.029646
v 0.052871 1.600939 0.039372
v 0.065704 1.409866 -0.029602
v 0.050329 1.410088 0.039416
v 0.063011 1.210446 -0.029556
v 0.047636 1.210669 0.039462
v 0.060318 1.009739 -0.029510
v 0.044943 1.009958 0.039509
v 0.057777 0.815021 -0.029465
v 0.042402 0.815232 0.039553
v 0.055538 0.633576 -0.029423
v 0.040163 0.633772 0.039595
v 0.053752 0.472695 -0.029387
v 0.038377 0.472864 0.039632
v 0.052571 0.339699 -0.029356
v 0.037195 0.339817 0.039663
v 0.052144 0.241986 -0.029333
v 0.036767 0.241984 0.039686
v 0.052663 0.152072 -0.029332
v 0.037288 0.151921 0.039687
v 0.054077 0.039945 -0.029363
v 0.038702 0.039701 0.039656
v 0.056162 -0.090734 -0.029419
v 0.040789 -0.091023 0.039599
v 0.058697 -0.236279 -0.029496
v 0.043323 -0.236587 0.039522
v 0.061455 -0.393041 -0.029588
v 0.046081 -0.393347 0.039430
v 0.064213 -0.557383 -0.029690
v 0.048840 -0.557671 0.039328
v 0.066748 -0.725677 -0.029796
v 0.051374 -0.725931 0.039222
v 0.068835 -0.894302 -0.029900
v 0.053460 -0.894504 0.039119
v 0.070249 -1.059642 -0.029997
v 0.054873 -1.059772 0.039022
v 0.070767 -1.218095 -0.030081
v 0.055391 -1.218122 0.038937
v 0.070161 -1.366076 -0.030148
v 0.054786 -1.365959 0.038871
v 0.068206 -1.499992 -0.030191
v 0.052834 -1.499677 0.038827
v 0.058511 2.133451 0.039249
v 0.041633 2.133454 0.049978
v 0.058083 2.049424 0.039269
v 0.041204 2.049552 0.049997
v 0.056899 1.927859 0.039297
v 0.040021 1.928043 0.050025
v 0.055111 1.775951 0.039332
v 0.038233 1.776161 0.050060
v 0.052871 1.600939 0.039372
v 0.035994 1.601162 0.050101
v 0.050329 1.410088 0.039416
v 0.033452 1.410317 0.050145
v 0.047636 1.210669 0.039462
v 0.030759 1.210899 0.050191
v 0.044943 1.009958 0.039509
v 0.028066 1.010184 0.050237
v 0.042402 0.815232 0.039553
v 0.025524 0.815449 0.050282
v 0.040163 0.633772 0.039595
v 0.023285 0.633972 0.050323
v 0.038377 0.472864 0.039632
v 0.021498 0.473035 0.050361
v 0.037195 0.339817 0.039663
v 0.020316 0.339931 0.050391
v 0.036767 0.241984 0.039686
v 0.019888 0.241973 0.050414
v 0.037288 0.151921 0.039687
v 0.020410 0.151765 0.050415
v 0.038702 0.039701 0.039656
v 0.021825 0.039456 0.050384
v 0.040789 -0.091023 0.039599
v 0.023912 -0.091310 0.050328
v 0.043323 -0.236587 0.039522
v 0.026446 -0.236888 0.050251
v 0.046081 -0.393347 0.039430
v 0.029205 -0.393644 0.050158
v 0.048840 -0.557671 0.039328
v 0.031963 -0.557947 0.050057
v 0.051374 -0.725931 0.039222
v 0.034496 -0.726169 0.049951
v 0.053460 -0.894504 0.039119
v 0.036582 -0.894687 0.049847
v 0.054873 -1.059772 0.039022
v 0.037995 -1.059877 0.049750
v 0.055391 -1.218122 0.038937
v 0.038512 -1.218121 0.049666
v 0.054786 -1.365959 0.038871
v 0.037908 -1.365806 0.049600
v 0.052834 -1.499677 0.038827
v 0.035959 -1.499316 0.049556
v 0.041633 2.133454 0.049978
v -0.027386 2.133450 0.034601
v 0.041204 2.049552 0.049997
v -0.027813 2.050061 0.034621
v 0.040021 1.928043 0.050025
v -0.028994 1.928782 0.034649
v 0.038233 1.776161 0.050060
v -0.030780 1.777005 0.034683
v 0.035994 1.601162 0.050101
v -0.033020 1.602060 0.034724
v 0.033452 1.410317 0.050145
v -0.035561 1.411239 0.034768
v 0.030759 1.210899 0.050191
v -0.038254 1.211824 0.034814
v 0.028066 1.010184 0.050237
v -0.040946 1.011094 0.034860
v 0.025524 0.815449 0.050282
v -0.043489 0.816322 0.034905
v 0.023285 0.633972 0.050323
v -0.045729 0.634777 0.034947
v 0.021498 0.473035 0.050361
v -0.047517 0.473721 0.034984
v 0.020316 0.339931 0.050391
v -0.048701 0.340384 0.035015
v 0.019888 0.241973 0.050414
v -0.049130 0.241922 0.035038
v 0.020410 0.151765 0.050415
v -0.048606 0.151132 0.035039
v 0.021825 0.039456 0.050384
v -0.047186 0.038476 0.035008
v 0.023912 -0.091310 0.050328
v -0.045097 -0.092454 0.034951
v 0.026446 -0.236888 0.050251
v -0.042562 -0.238088 0.034874
v 0.029205 -0.393644 0.050158
v -0.039804 -0.394821 0.034782
v 0.031963 -0.557947 0.050057
v -0.037047 -0.559036 0.034680
v 0.034496 -0.726169 0.049951
v -0.034516 -0.727107 0.034575
v 0.036582 -0.894687 0.049847
v -0.032433 -0.895400 0.034471
v 0.037995 -1.059877 0.049750
v -0.031022 -1.060277 0.034374
v 0.038512 -1.218121 0.049666
v -0.030507 -1.218085 0.034290
v 0.037908 -1.365806 0.049600
v -0.031107 -1.365155 0.034224
v 0.035959 -1.499316 0.049556
v -0.033044 -1.497825 0.034181
vn 0.9760 -0.0049 0.2174
vn 0.9760 -0.0072 0.2174
vn 0.9760 -0.0104 0.2174
vn 0.9760 -0.0119 0.2174
vn 0.9760 -0.0127 0.2174
vn 0.9760 -0.0130 0.2174
vn 0.9760 -0.0131 0.2174
vn 0.9760 -0.0128 0.2174
vn 0.9760 -0.0123 0.2174
vn 0.9760 -0.0114 0.2174
vn 0.9760 -0.0097 0.2174
vn 0.9760 -0.0064 0.2174
vn 0.9760 0.0007 0.2174
vn 0.9760 0.0089 0.2174
vn 0.9760 0.0139 0.2174
vn 0.9759 0.0162 0.2174
vn 0.9759 0.0169 0.2174
vn 0.9759 0.0166 0.2174
vn 0.9759 0.0154 0.2174
vn 0.9760 0.0132 0.2174
vn 0.9760 0.0101 0.2174
vn 0.9760 0.0056 0.2174
vn 0.9760 -0.0005 0.2174
vn 0.9760 -0.0092 0.2174
vn 0.9760 -0.0143 0.2174
vn 0.5364 -0.0025 0.8439
vn 0.5364 -0.0038 0.8439
vn 0.5364 -0.0056 0.8439
vn 0.5364 -0.0064 0.8439
vn 0.5364 -0.0068 0.8439
vn 0.5364 -0.0070 0.8439
vn 0.5364 -0.0069 0.8439
vn 0.5364 -0.0066 0.8439
vn 0.5364 -0.0061 0.8439
vn 0.5364 -0.0052 0.8439
vn 0.5364 -0.0033 0.8439
vn 0.5364 0.0005 0.8439
vn 0.5364 0.0048 0.8439
vn 0.5364 0.0074 0.8439
vn 0.5363 0.0085 0.8439
vn 0.5363 0.0089 0.8439
vn 0.5363 0.0087 0.8439
vn 0.5364 0.0080 0.8439
vn 0.5364 0.0068 0.8439
vn 0.5364 0.0051 0.8439
vn 0.5364 0.0027 0.8439
vn 0.5364 -0.0006 0.8439
vn 0.5364 -0.0053 0.8439
vn 0.5364 -0.0081 0.8439
vn -0.2174 0.0013 0.9760
vn -0.2174 0.0018 0.9760
vn -0.2174 0.0026 0.9760
vn -0.2174 0.0029 0.9760
vn -0.2174 0.0031 0.9760
vn -0.2174 0.0030 0.9760
vn -0.2174 0.0027 0.9760
vn -0.2174 0.0024 0.9760
vn -0.2174 0.0016 0.9760
vn -0.2174 -0.0000 0.9760
vn -0.2174 -0.0021 0.9760
vn -0.2174 -0.0034 0.9760
vn -0.2174 -0.0041 0.9760
vn -0.2174 -0.0043 0.9760
vn -0.2174 -0.0036 0.9760
vn -0.2174 -0.0028 0.9760
vn -0.2174 -0.0018 0.9760
vn -0.2174 -0.0004 0.9760
vn -0.2174 0.0028 0.9760
usemtl (null)
s 1
f 32//2 34//3 33//3 31//2
f 34//3 36//4 35//4 33//3
f 36//4 38//5 37//5 35//4
f 38//5 40//6 39//6 37//5
f 40//6 42//7 41//7 39//6
f 42//7 44//8 43//8 41//7
f 44//8 46//9 45//9 43//8
f 46//9 48//10 47//10 45//9
f 48//10 50//11 49//11 47//10
f 50//11 52//12 51//12 49//11
f 52//12 54//13 53//13 51//12
f 54//13 56//14 55//14 53//13
f 56//14 58//15 57//15 55//14
f 58//15 60//16 59//16 57//15
f 60//16 62//17 61//17 59//16
f 62//17 64//18 63//18 61//17
f 64//18 66//19 65//19 63//18
f 66//19 68//20 67//20 65//19
f 68//20 70//21 69//21 67//20
f 70//21 72//22 71//22 69//21
f 72//22 74//23 73//23 71//22
f 74//23 76//24 75//24 73//23
f 76//24 78//25 77//25 75//24
f 78//25 80//26 79//26 77//25
f 82//27 84//28 83//28 81//27
f 84//28 86//29 85//29 83//28
f 86//29 88//30 87//30 85//29
f 88//30 90//31 89//31 87//30
f 90//31 92//32 91//32 89//31
f 92//32 94//32 93//32 91//32
f 94//32 96//33 95//33 93//32
f 96//33 98//34 97//34 95//33
f 98//34 100//35 99//35 97//34
f 100//35 102//36 101//36 99//35
f 102//36 104//37 103//37 101//36
f 104//37 106//38 105//38 103//37
f 106//38 108//39 107//39 105//38
f 108//39 110//40 109//40 107//39
f 110//40 112//41 111//41 109//40
f 112//41 114//42 113//42 111//41
f 114//42 116//43 115//43 113//42
f 116//43 118//44 117//44 115//43
f 118//44 120//45 119//45 117//44
f 120//45 122//46 121//46 119//45
f 122//46 124//47 123//47 121//46
f 124//47 126//48 125//48 123//47
f 126//48 128//49 127//49 125//48
f 128//49 130//50 129//50 127//49
f 132//51 134//52 133//52 131//51
f 134//52 136//53 135//53 133//52
f 136//53 138//54 137//54 135//53
f 138//54 140//55 139//55 137//54
f 140//55 142//55 141//55 139//55
f 142//55 144//55 143//55 141//55
f 144//55 146//55 145//55 143//55
f 146//55 148//56 147//56 145//55
f 148//56 150//57 149//57 147//56
f 150//57 152//58 151//58 149//57
f 152//58 154//59 153//59 151//58
f 154//59 156//60 155//60 153//59
f 156//60 158//61 157//61 155//60
f 158//61 160//62 159//62 157//61
f 160//62 162//63 161//63 159//62
f 162//63 164//64 163//64 161//63
f 164//64 166//64 165//64 163//64
f 166//64 168//63 167//63 165//64
f 168//63 170//65 169//65 167//63
f 170//65 172//66 171//66 169//65
f 172//66 174//67 173//67 171//66
f 174//67 176//68 175//68 173//67
f 176//68 178//59 177//59 175//68
f 178//59 180//69 179//69 177//59
