# Blender v2.77 (sub 0) OBJ File: 'arrowsBackLeft.blend'
# www.blender.org
mtllib backLeft.mtl
o BezierCurve_BezierCurve.001
v 0.142466 0.321905 0.002166
v 0.176993 0.285743 0.002174
v -0.853695 -0.654292 0.001934
v -0.803699 -0.654751 0.001945
v 0.126261 -1.650502 0.002161
v 0.161445 -1.614979 0.002169
v 0.176993 0.285743 0.002174
v 0.190804 0.271277 0.002177
v -0.803699 -0.654751 0.001945
v -0.783699 -0.654934 0.001950
v 0.161445 -1.614979 0.002169
v 0.175520 -1.600770 0.002172
v 0.190804 0.271277 0.002177
v 0.225332 0.235111 0.002185
v -0.783699 -0.654934 0.001950
v -0.733700 -0.655394 0.001962
v 0.175520 -1.600770 0.002172
v 0.210707 -1.565245 0.002180
v -0.787623 -0.594881 0.001949
v -0.787952 -0.644880 0.001949
v -0.793302 -0.594844 0.001948
v -0.793631 -0.644843 0.001948
v -0.787952 -0.644880 0.001949
v -0.788083 -0.664880 0.001949
v -0.793631 -0.644843 0.001948
v -0.793763 -0.664842 0.001948
v -0.788083 -0.664880 0.001949
v -0.788413 -0.714879 0.001949
v -0.793763 -0.664842 0.001948
v -0.794092 -0.714841 0.001948
vn 0.0002 0.0000 -1.0000
usemtl (null)
s 1
f 2//1 4//1 3//1 1//1
f 4//1 6//1 5//1 3//1
f 8//1 10//1 9//1 7//1
f 10//1 12//1 11//1 9//1
f 14//1 16//1 15//1 13//1
f 16//1 18//1 17//1 15//1
f 20//1 22//1 21//1 19//1
f 24//1 26//1 25//1 23//1
f 28//1 30//1 29//1 27//1
o BezierCurve.001_BezierCurve.002
v 1.304635 0.690521 -0.025367
v 1.304636 0.696227 0.045113
v 1.290450 0.679258 -0.025541
v 1.285255 0.682546 0.044901
v 1.273290 0.622741 -0.026413
v 1.266646 0.623066 0.043985
v 1.265050 0.515205 -0.028070
v 1.258261 0.514301 0.042308
v 1.268806 0.373430 -0.030256
v 1.262022 0.372009 0.040114
v 1.280758 0.209978 -0.032775
v 1.273989 0.208345 0.037592
v 1.296264 0.035477 -0.035465
v 1.289496 0.033817 0.034901
v 1.310551 -0.140121 -0.038172
v 1.303773 -0.141649 0.032196
v 1.318785 -0.307326 -0.040750
v 1.311994 -0.308514 0.029624
v 1.315897 -0.457396 -0.043063
v 1.309131 -0.457886 0.027321
v 1.295489 -0.583472 -0.045007
v 1.289026 -0.582471 0.025401
v 1.244444 -0.679648 -0.046489
v 1.239784 -0.675794 0.023962
v 1.158176 -0.719048 -0.047082
v 1.156861 -0.713447 0.023394
v 1.058482 -0.720338 -0.046870
v 1.058707 -0.714573 0.023604
v 0.946144 -0.721165 -0.046308
v 0.946502 -0.715399 0.024166
v 0.815352 -0.722373 -0.045458
v 0.815784 -0.716606 0.025016
v 0.669749 -0.723810 -0.044394
v 0.670222 -0.718043 0.026080
v 0.512968 -0.725326 -0.043186
v 0.513460 -0.719558 0.027287
v 0.348637 -0.726769 -0.041909
v 0.349131 -0.721002 0.028564
v 0.180381 -0.727990 -0.040634
v 0.180864 -0.722222 0.029839
v 0.011824 -0.728837 -0.039434
v 0.012280 -0.723069 0.031039
v -0.153414 -0.729159 -0.038381
v -0.153003 -0.723392 0.032093
v -0.311719 -0.728806 -0.037547
v -0.311375 -0.723038 0.032928
v -0.459487 -0.727625 -0.037005
v -0.459241 -0.721857 0.033470
v -0.593107 -0.725465 -0.036827
v -0.593000 -0.719694 0.033648
v 1.304636 0.696227 0.045113
v 1.304639 0.711465 0.058068
v 1.285255 0.682546 0.044901
v 1.273448 0.692291 0.057772
v 1.266646 0.623066 0.043985
v 1.251547 0.626074 0.056751
v 1.258261 0.514301 0.042308
v 1.242832 0.514517 0.055031
v 1.262022 0.372009 0.040114
v 1.246606 0.371049 0.052820
v 1.273989 0.208345 0.037592
v 1.258604 0.206904 0.050289
v 1.289496 0.033817 0.034901
v 1.274117 0.032312 0.047598
v 1.303773 -0.141649 0.032196
v 1.288371 -0.142851 0.044898
v 1.311994 -0.308514 0.029624
v 1.296561 -0.308947 0.042337
v 1.309131 -0.457886 0.027321
v 1.293756 -0.456728 0.040059
v 1.289026 -0.582471 0.025401
v 1.274338 -0.577925 0.038191
v 1.239784 -0.675794 0.023962
v 1.229192 -0.664763 0.036852
v 1.156861 -0.713447 0.023394
v 1.153712 -0.698529 0.036339
v 1.058707 -0.714573 0.023604
v 1.058673 -0.699325 0.036547
v 0.946502 -0.715399 0.024166
v 0.946450 -0.700151 0.037109
v 0.815784 -0.716606 0.025016
v 0.815728 -0.701358 0.037958
v 0.670222 -0.718043 0.026080
v 0.670170 -0.702795 0.039022
v 0.513460 -0.719558 0.027287
v 0.513420 -0.704310 0.040229
v 0.349131 -0.721002 0.028564
v 0.349108 -0.705754 0.041506
v 0.180864 -0.722222 0.029839
v 0.180865 -0.706974 0.042781
v 0.012280 -0.723069 0.031039
v 0.012314 -0.707821 0.043981
v -0.153003 -0.723392 0.032093
v -0.152925 -0.708143 0.045034
v -0.311375 -0.723038 0.032928
v -0.311239 -0.707790 0.045868
v -0.459241 -0.721857 0.033470
v -0.459025 -0.706609 0.046411
v -0.593000 -0.719694 0.033648
v -0.592674 -0.704448 0.046588
v 1.304639 0.711465 0.058068
v 1.304656 0.781945 0.052361
v 1.273448 0.692291 0.057772
v 1.219607 0.737723 0.051680
v 1.251547 0.626074 0.056751
v 1.182696 0.640787 0.050185
v 1.242832 0.514517 0.055031
v 1.172472 0.516499 0.048269
v 1.246606 0.371049 0.052820
v 1.176309 0.367670 0.045975
v 1.258604 0.206904 0.050289
v 1.188450 0.201331 0.043411
v 1.274117 0.032312 0.047598
v 1.203987 0.026448 0.040715
v 1.288371 -0.142851 0.044898
v 1.218137 -0.147336 0.038036
v 1.296561 -0.308947 0.042337
v 1.226185 -0.309921 0.035529
v 1.293756 -0.456728 0.040059
v 1.223643 -0.450451 0.033363
v 1.274338 -0.577925 0.038191
v 1.207359 -0.556196 0.031733
v 1.229192 -0.664763 0.036852
v 1.180895 -0.613466 0.030850
v 1.153712 -0.698529 0.036339
v 1.139287 -0.629545 0.030586
v 1.058673 -0.699325 0.036547
v 1.058277 -0.628851 0.030782
v 0.946450 -0.700151 0.037109
v 0.945832 -0.629679 0.031346
v 0.815728 -0.701358 0.037958
v 0.815014 -0.630887 0.032196
v 0.670170 -0.702795 0.039022
v 0.669439 -0.632323 0.033260
v 0.513420 -0.704310 0.040229
v 0.512725 -0.633838 0.034467
v 0.349108 -0.705754 0.041506
v 0.348499 -0.635281 0.035743
v 0.180865 -0.706974 0.042781
v 0.180390 -0.636500 0.037017
v 0.012314 -0.707821 0.043981
v 0.012029 -0.637346 0.038216
v -0.152925 -0.708143 0.045034
v -0.152949 -0.637668 0.039267
v -0.311239 -0.707790 0.045868
v -0.310905 -0.637316 0.040100
v -0.459025 -0.706609 0.046411
v -0.458188 -0.636140 0.040640
v -0.592674 -0.704448 0.046588
v -0.591154 -0.633990 0.040817
vn 0.5943 -0.8009 0.0730
vn 0.8122 -0.5773 0.0844
vn 0.8141 -0.5746 0.0845
vn 0.9780 -0.1875 0.0915
vn 0.9780 -0.1872 0.0915
vn 0.9951 -0.0265 0.0955
vn 0.9941 0.0480 0.0968
vn 0.9921 0.0788 0.0973
vn 0.9918 0.0829 0.0973
vn 0.9933 0.0634 0.0970
vn 0.9952 0.0134 0.0962
vn 0.9914 -0.0906 0.0945
vn 0.9438 -0.3179 0.0904
vn 0.9438 -0.3177 0.0904
vn 0.6825 -0.7257 0.0866
vn 0.2173 -0.9727 0.0811
vn 0.2170 -0.9728 0.0811
vn 0.0100 -0.9966 0.0810
vn 0.0087 -0.9966 0.0815
vn 0.0101 -0.9966 0.0815
vn 0.0103 -0.9966 0.0815
vn 0.0098 -0.9966 0.0815
vn 0.0086 -0.9966 0.0815
vn 0.0067 -0.9966 0.0815
vn 0.0040 -0.9966 0.0815
vn 0.0003 -0.9966 0.0815
vn -0.0047 -0.9966 0.0816
vn -0.0118 -0.9966 0.0816
vn -0.0160 -0.9965 0.0816
vn 0.3684 -0.5783 0.7278
vn 0.5046 -0.4083 0.7606
vn 0.5106 -0.3996 0.7613
vn 0.6296 -0.1371 0.7647
vn 0.6297 -0.1360 0.7648
vn 0.6363 -0.0282 0.7709
vn 0.6363 -0.0281 0.7709
vn 0.6352 0.0197 0.7721
vn 0.6338 0.0394 0.7724
vn 0.6336 0.0420 0.7725
vn 0.6346 0.0295 0.7723
vn 0.6359 -0.0023 0.7717
vn 0.6341 -0.0687 0.7702
vn 0.6341 -0.0686 0.7702
vn 0.6060 -0.2145 0.7660
vn 0.6062 -0.2137 0.7660
vn 0.4311 -0.4696 0.7704
vn 0.4312 -0.4696 0.7704
vn 0.1396 -0.6333 0.7612
vn 0.1382 -0.6335 0.7613
vn 0.0083 -0.6489 0.7608
vn 0.0097 -0.6471 0.7624
vn 0.0114 -0.6471 0.7624
vn 0.0120 -0.6470 0.7624
vn 0.0118 -0.6470 0.7624
vn 0.0110 -0.6471 0.7624
vn 0.0096 -0.6471 0.7624
vn 0.0074 -0.6471 0.7624
vn 0.0043 -0.6471 0.7624
vn 0.0001 -0.6471 0.7624
vn -0.0059 -0.6470 0.7624
vn -0.0094 -0.6470 0.7624
vn -0.0508 0.0778 0.9957
vn -0.0728 0.0474 0.9962
vn -0.0726 0.0476 0.9962
vn -0.0949 0.0052 0.9955
vn -0.0949 0.0053 0.9955
vn -0.0961 -0.0127 0.9953
vn -0.0960 -0.0201 0.9952
vn -0.0957 -0.0231 0.9951
vn -0.0957 -0.0235 0.9951
vn -0.0958 -0.0216 0.9951
vn -0.0960 -0.0168 0.9952
vn -0.0959 -0.0069 0.9954
vn -0.0924 0.0142 0.9956
vn -0.0924 0.0143 0.9956
vn -0.0643 0.0530 0.9965
vn -0.0643 0.0529 0.9965
vn -0.0182 0.0797 0.9966
vn -0.0184 0.0797 0.9966
vn 0.0033 0.0820 0.9966
vn 0.0050 0.0815 0.9966
vn 0.0061 0.0815 0.9966
vn 0.0067 0.0815 0.9966
vn 0.0069 0.0815 0.9966
vn 0.0070 0.0815 0.9966
vn 0.0068 0.0815 0.9966
vn 0.0064 0.0815 0.9966
vn 0.0058 0.0815 0.9966
vn 0.0049 0.0815 0.9966
vn 0.0034 0.0815 0.9966
vn 0.0026 0.0816 0.9966
usemtl (null)
s 1
f 32//2 34//3 33//4 31//2
f 34//3 36//5 35//6 33//4
f 36//5 38//7 37//7 35//6
f 38//7 40//8 39//8 37//7
f 40//8 42//9 41//9 39//8
f 42//9 44//10 43//10 41//9
f 44//10 46//11 45//11 43//10
f 46//11 48//12 47//12 45//11
f 48//12 50//13 49//13 47//12
f 50//13 52//14 51//15 49//13
f 52//14 54//16 53//16 51//15
f 54//16 56//17 55//18 53//16
f 56//17 58//19 57//19 55//18
f 58//19 60//20 59//20 57//19
f 60//20 62//21 61//21 59//20
f 62//21 64//22 63//22 61//21
f 64//22 66//23 65//23 63//22
f 66//23 68//24 67//24 65//23
f 68//24 70//25 69//25 67//24
f 70//25 72//26 71//26 69//25
f 72//26 74//27 73//27 71//26
f 74//27 76//28 75//28 73//27
f 76//28 78//29 77//29 75//28
f 78//29 80//30 79//30 77//29
f 82//31 84//32 83//33 81//31
f 84//32 86//34 85//35 83//33
f 86//34 88//36 87//37 85//35
f 88//36 90//38 89//38 87//37
f 90//38 92//39 91//39 89//38
f 92//39 94//40 93//40 91//39
f 94//40 96//41 95//41 93//40
f 96//41 98//42 97//42 95//41
f 98//42 100//43 99//44 97//42
f 100//43 102//45 101//46 99//44
f 102//45 104//47 103//48 101//46
f 104//47 106//49 105//50 103//48
f 106//49 108//51 107//51 105//50
f 108//51 110//52 109//52 107//51
f 110//52 112//53 111//53 109//52
f 112//53 114//54 113//54 111//53
f 114//54 116//55 115//55 113//54
f 116//55 118//56 117//56 115//55
f 118//56 120//57 119//57 117//56
f 120//57 122//58 121//58 119//57
f 122//58 124//59 123//59 121//58
f 124//59 126//60 125//60 123//59
f 126//60 128//61 127//61 125//60
f 128//61 130//62 129//62 127//61
f 132//63 134//64 133//65 131//63
f 134//64 136//66 135//67 133//65
f 136//66 138//68 137//68 135//67
f 138//68 140//69 139//69 137//68
f 140//69 142//70 141//70 139//69
f 142//70 144//71 143//71 141//70
f 144//71 146//72 145//72 143//71
f 146//72 148//73 147//73 145//72
f 148//73 150//74 149//74 147//73
f 150//74 152//75 151//76 149//74
f 152//75 154//77 153//78 151//76
f 154//77 156//79 155//80 153//78
f 156//79 158//81 157//81 155//80
f 158//81 160//82 159//82 157//81
f 160//82 162//83 161//83 159//82
f 162//83 164//84 163//84 161//83
f 164//84 166//85 165//85 163//84
f 166//85 168//86 167//86 165//85
f 168//86 170//87 169//87 167//86
f 170//87 172//88 171//88 169//87
f 172//88 174//89 173//89 171//88
f 174//89 176//90 175//90 173//89
f 176//90 178//91 177//91 175//90
f 178//91 180//92 179//92 177//91
