# Blender v2.77 (sub 0) OBJ File: 'arrowsLeft.blend'
# www.blender.org
mtllib left.mtl
o BezierCurve_BezierCurve.001
v 1.042810 -0.733779 0.002165
v 1.008283 -0.697616 0.002173
v 2.038971 0.242418 0.001934
v 1.988975 0.242877 0.001946
v 1.059016 1.238628 0.002160
v 1.023832 1.203106 0.002169
v 1.008283 -0.697616 0.002173
v 0.994472 -0.683150 0.002176
v 1.988975 0.242877 0.001946
v 1.968976 0.243061 0.001950
v 1.023832 1.203106 0.002169
v 1.009757 1.188896 0.002172
v 0.994472 -0.683150 0.002176
v 0.959944 -0.646985 0.002184
v 1.968976 0.243061 0.001950
v 1.918976 0.243520 0.001962
v 1.009757 1.188896 0.002172
v 0.974570 1.153371 0.002180
v 1.972899 0.183008 0.001949
v 1.973228 0.233007 0.001949
v 1.978579 0.182970 0.001948
v 1.978908 0.232969 0.001948
v 1.973228 0.233007 0.001949
v 1.973360 0.253006 0.001949
v 1.978908 0.232969 0.001948
v 1.979039 0.252969 0.001948
v 1.973360 0.253006 0.001949
v 1.973689 0.303005 0.001949
v 1.979039 0.252969 0.001948
v 1.979369 0.302968 0.001948
vn -0.0002 0.0000 -1.0000
usemtl (null)
s 1
f 2//1 4//1 3//1 1//1
f 4//1 6//1 5//1 3//1
f 8//1 10//1 9//1 7//1
f 10//1 12//1 11//1 9//1
f 14//1 16//1 15//1 13//1
f 16//1 18//1 17//1 15//1
f 20//1 22//1 21//1 19//1
f 24//1 26//1 25//1 23//1
f 28//1 30//1 29//1 27//1
o BezierCurve.001_BezierCurve.002
v -1.854944 0.262882 -0.046504
v -1.854933 0.312863 0.003515
v -1.771625 0.262863 -0.046930
v -1.771242 0.312844 0.003087
v -1.650377 0.262834 -0.048111
v -1.649827 0.312816 0.001905
v -1.498614 0.262799 -0.049897
v -1.497988 0.312781 0.000118
v -1.323677 0.262759 -0.052136
v -1.323012 0.312741 -0.002122
v -1.132859 0.262715 -0.054677
v -1.132177 0.312696 -0.004663
v -0.933445 0.262669 -0.057370
v -0.932760 0.312651 -0.007357
v -0.732713 0.262623 -0.060063
v -0.732039 0.312604 -0.010049
v -0.537935 0.262578 -0.062605
v -0.537289 0.312559 -0.012591
v -0.356382 0.262536 -0.064846
v -0.355785 0.312517 -0.014831
v -0.195310 0.262499 -0.066634
v -0.194799 0.312480 -0.016618
v -0.061942 0.262468 -0.067818
v -0.061599 0.312449 -0.017801
v 0.036480 0.262445 -0.068248
v 0.036457 0.312427 -0.018229
v 0.127114 0.262744 -0.068044
v 0.126666 0.312724 -0.018026
v 0.239633 0.263572 -0.067480
v 0.238930 0.313551 -0.017463
v 0.370506 0.264781 -0.066630
v 0.369683 0.314758 -0.016614
v 0.516132 0.266218 -0.065565
v 0.515268 0.316195 -0.015549
v 0.672893 0.267734 -0.064358
v 0.672045 0.317710 -0.014342
v 0.837168 0.269177 -0.063081
v 0.836383 0.319154 -0.013065
v 1.005331 0.270397 -0.061807
v 1.004656 0.320375 -0.011790
v 1.173753 0.271243 -0.060608
v 1.173242 0.321222 -0.010589
v 1.338807 0.271565 -0.059555
v 1.338522 0.321544 -0.009536
v 1.496856 0.271213 -0.058723
v 1.496888 0.321191 -0.008701
v 1.644263 0.270035 -0.058182
v 1.644742 0.320010 -0.008159
v 1.777394 0.267883 -0.058005
v 1.778482 0.317847 -0.007981
v -1.854933 0.312863 0.003515
v -1.854933 0.312856 0.023515
v -1.771242 0.312844 0.003087
v -1.771093 0.312837 0.023086
v -1.649827 0.312816 0.001905
v -1.649612 0.312809 0.021904
v -1.497988 0.312781 0.000118
v -1.497743 0.312773 0.020117
v -1.323012 0.312741 -0.002122
v -1.322751 0.312733 0.017877
v -1.132177 0.312696 -0.004663
v -1.131908 0.312689 0.015335
v -0.932760 0.312651 -0.007357
v -0.932491 0.312643 0.012642
v -0.732039 0.312604 -0.010049
v -0.731774 0.312597 0.009949
v -0.537289 0.312559 -0.012591
v -0.537035 0.312552 0.007407
v -0.355785 0.312517 -0.014831
v -0.355550 0.312510 0.005167
v -0.194799 0.312480 -0.016618
v -0.194599 0.312473 0.003381
v -0.061599 0.312449 -0.017801
v -0.061467 0.312442 0.002198
v 0.036457 0.312427 -0.018229
v 0.036478 0.312419 0.001771
v 0.126666 0.312724 -0.018026
v 0.126594 0.312716 0.001974
v 0.238930 0.313551 -0.017463
v 0.238815 0.313542 0.002537
v 0.369683 0.314758 -0.016614
v 0.369545 0.314750 0.003386
v 0.515268 0.316195 -0.015549
v 0.515118 0.316186 0.004450
v 0.672045 0.317710 -0.014342
v 0.671890 0.317702 0.005657
v 0.836383 0.319154 -0.013065
v 0.836230 0.319146 0.006935
v 1.004656 0.320375 -0.011790
v 1.004509 0.320366 0.008210
v 1.173242 0.321222 -0.010589
v 1.173107 0.321214 0.009411
v 1.338522 0.321544 -0.009536
v 1.338406 0.321536 0.010464
v 1.496888 0.321191 -0.008701
v 1.496799 0.321183 0.011299
v 1.644742 0.320010 -0.008159
v 1.644691 0.320001 0.011841
v 1.778482 0.317847 -0.007981
v 1.778487 0.317838 0.012019
v -1.854933 0.312856 0.023515
v -1.854945 0.262838 0.073496
v -1.771093 0.312837 0.023086
v -1.770734 0.262818 0.073067
v -1.649612 0.312809 0.021904
v -1.649086 0.262790 0.071882
v -1.497743 0.312773 0.020117
v -1.497140 0.262755 0.070094
v -1.322751 0.312733 0.017877
v -1.322109 0.262715 0.067854
v -1.131908 0.312689 0.015335
v -1.131249 0.262670 0.065312
v -0.932491 0.312643 0.012642
v -0.931830 0.262625 0.062619
v -0.731774 0.312597 0.009949
v -0.731125 0.262578 0.059926
v -0.537035 0.312552 0.007407
v -0.536412 0.262533 0.057385
v -0.355550 0.312510 0.005167
v -0.354976 0.262491 0.055146
v -0.194599 0.312473 0.003381
v -0.194111 0.262454 0.053360
v -0.061467 0.312442 0.002198
v -0.061147 0.262424 0.052179
v 0.036478 0.312419 0.001771
v 0.036607 0.262401 0.051752
v 0.126594 0.312716 0.001974
v 0.126678 0.262697 0.051955
v 0.238815 0.313542 0.002537
v 0.238943 0.263524 0.052518
v 0.369545 0.314750 0.003386
v 0.369678 0.264731 0.053367
v 0.515118 0.316186 0.004450
v 0.515231 0.266168 0.054432
v 0.671890 0.317702 0.005657
v 0.671965 0.267683 0.055638
v 0.836230 0.319146 0.006935
v 0.836247 0.269126 0.056915
v 1.004509 0.320366 0.008210
v 1.004449 0.270346 0.058190
v 1.173107 0.321214 0.009411
v 1.172944 0.271193 0.059390
v 1.338406 0.321536 0.010464
v 1.338108 0.271515 0.060442
v 1.496799 0.321183 0.011299
v 1.496319 0.271162 0.061276
v 1.644691 0.320001 0.011841
v 1.643963 0.269983 0.061818
v 1.778487 0.317838 0.012019
v 1.777420 0.267825 0.061995
vn -0.0034 0.7074 -0.7068
vn -0.0051 0.7074 -0.7068
vn -0.0074 0.7074 -0.7068
vn -0.0085 0.7074 -0.7068
vn -0.0091 0.7074 -0.7068
vn -0.0093 0.7074 -0.7068
vn -0.0092 0.7074 -0.7068
vn -0.0088 0.7074 -0.7068
vn -0.0081 0.7074 -0.7068
vn -0.0069 0.7074 -0.7068
vn -0.0045 0.7074 -0.7068
vn -0.0018 0.7074 -0.7068
vn -0.0012 0.7074 -0.7068
vn -0.0019 0.7074 -0.7068
vn -0.0016 0.7074 -0.7068
vn -0.0010 0.7074 -0.7068
vn -0.0002 0.7074 -0.7068
vn 0.0008 0.7074 -0.7068
vn 0.0023 0.7074 -0.7068
vn 0.0042 0.7074 -0.7068
vn 0.0067 0.7074 -0.7068
vn 0.0103 0.7074 -0.7067
vn 0.0124 0.7073 -0.7067
vn 0.0002 1.0000 0.0004
vn -0.0015 1.0000 0.0004
vn -0.0053 1.0000 0.0004
vn -0.0083 0.9999 0.0003
vn -0.0096 0.9999 0.0003
vn -0.0098 0.9999 0.0003
vn -0.0092 0.9999 0.0003
vn -0.0080 0.9999 0.0003
vn -0.0061 1.0000 0.0004
vn -0.0035 1.0000 0.0004
vn 0.0001 1.0000 0.0004
vn 0.0051 1.0000 0.0004
vn 0.0121 0.9999 0.0005
vn 0.0161 0.9998 0.0005
vn 0.0038 0.7068 0.7074
vn 0.0054 0.7068 0.7073
vn 0.0078 0.7068 0.7073
vn 0.0089 0.7068 0.7073
vn 0.0094 0.7068 0.7073
vn 0.0096 0.7068 0.7073
vn 0.0097 0.7068 0.7073
vn 0.0095 0.7068 0.7073
vn 0.0091 0.7068 0.7073
vn 0.0084 0.7068 0.7073
vn 0.0072 0.7068 0.7073
vn 0.0048 0.7068 0.7073
vn -0.0003 0.7068 0.7074
vn -0.0063 0.7068 0.7074
vn -0.0099 0.7068 0.7073
vn -0.0116 0.7068 0.7073
vn -0.0122 0.7067 0.7073
vn -0.0120 0.7067 0.7073
vn -0.0111 0.7068 0.7073
vn -0.0095 0.7068 0.7073
vn -0.0072 0.7068 0.7074
vn -0.0040 0.7068 0.7074
vn 0.0004 0.7068 0.7074
vn 0.0067 0.7067 0.7074
vn 0.0105 0.7067 0.7074
usemtl (null)
s 1
f 32//2 34//3 33//3 31//2
f 34//3 36//4 35//4 33//3
f 36//4 38//5 37//5 35//4
f 38//5 40//6 39//6 37//5
f 40//6 42//7 41//7 39//6
f 42//7 44//7 43//7 41//7
f 44//7 46//8 45//8 43//7
f 46//8 48//9 47//9 45//8
f 48//9 50//10 49//10 47//9
f 50//10 52//11 51//11 49//10
f 52//11 54//12 53//12 51//11
f 54//12 56//13 55//13 53//12
f 56//13 58//14 57//14 55//13
f 58//14 60//13 59//13 57//14
f 60//13 62//15 61//15 59//13
f 62//15 64//16 63//16 61//15
f 64//16 66//17 65//17 63//16
f 66//17 68//18 67//18 65//17
f 68//18 70//19 69//19 67//18
f 70//19 72//20 71//20 69//19
f 72//20 74//21 73//21 71//20
f 74//21 76//22 75//22 73//21
f 76//22 78//23 77//23 75//22
f 78//23 80//24 79//24 77//23
f 82//25 84//25 83//25 81//25
f 84//25 86//25 85//25 83//25
f 86//25 88//25 87//25 85//25
f 88//25 90//25 89//25 87//25
f 90//25 92//25 91//25 89//25
f 92//25 94//25 93//25 91//25
f 94//25 96//25 95//25 93//25
f 96//25 98//25 97//25 95//25
f 98//25 100//25 99//25 97//25
f 100//25 102//25 101//25 99//25
f 102//25 104//25 103//25 101//25
f 104//25 106//26 105//26 103//25
f 106//26 108//27 107//27 105//26
f 108//27 110//28 109//28 107//27
f 110//28 112//29 111//29 109//28
f 112//29 114//30 113//30 111//29
f 114//30 116//31 115//31 113//30
f 116//31 118//32 117//32 115//31
f 118//32 120//33 119//33 117//32
f 120//33 122//34 121//34 119//33
f 122//34 124//35 123//35 121//34
f 124//35 126//36 125//36 123//35
f 126//36 128//37 127//37 125//36
f 128//37 130//38 129//38 127//37
f 132//39 134//40 133//40 131//39
f 134//40 136//41 135//41 133//40
f 136//41 138//42 137//42 135//41
f 138//42 140//43 139//43 137//42
f 140//43 142//44 141//44 139//43
f 142//44 144//45 143//45 141//44
f 144//45 146//46 145//46 143//45
f 146//46 148//47 147//47 145//46
f 148//47 150//48 149//48 147//47
f 150//48 152//49 151//49 149//48
f 152//49 154//50 153//50 151//49
f 154//50 156//51 155//51 153//50
f 156//51 158//52 157//52 155//51
f 158//52 160//53 159//53 157//52
f 160//53 162//54 161//54 159//53
f 162//54 164//55 163//55 161//54
f 164//55 166//56 165//56 163//55
f 166//56 168//57 167//57 165//56
f 168//57 170//58 169//58 167//57
f 170//58 172//59 171//59 169//58
f 172//59 174//60 173//60 171//59
f 174//60 176//61 175//61 173//60
f 176//61 178//62 177//62 175//61
f 178//62 180//63 179//63 177//62
