# Blender v2.77 (sub 0) OBJ File: 'arrowsStraightLeft.blend'
# www.blender.org
mtllib straightLeft.mtl
o BezierCurve_BezierCurve.001
v 1.042810 -0.733779 0.002165
v 1.008283 -0.697616 0.002173
v 2.038971 0.242418 0.001934
v 1.988975 0.242877 0.001946
v 1.059016 1.238628 0.002160
v 1.023832 1.203106 0.002169
v 1.008283 -0.697616 0.002173
v 0.994472 -0.683150 0.002176
v 1.988975 0.242877 0.001946
v 1.968976 0.243061 0.001950
v 1.023832 1.203106 0.002169
v 1.009757 1.188896 0.002172
v 0.994472 -0.683150 0.002176
v 0.959944 -0.646985 0.002184
v 1.968976 0.243061 0.001950
v 1.918976 0.243520 0.001962
v 1.009757 1.188896 0.002172
v 0.974570 1.153371 0.002180
v 1.972899 0.183008 0.001949
v 1.973228 0.233007 0.001949
v 1.978579 0.182970 0.001948
v 1.978908 0.232969 0.001948
v 1.973228 0.233007 0.001949
v 1.973360 0.253006 0.001949
v 1.978908 0.232969 0.001948
v 1.979039 0.252969 0.001948
v 1.973360 0.253006 0.001949
v 1.973689 0.303005 0.001949
v 1.979039 0.252969 0.001948
v 1.979369 0.302968 0.001948
vn -0.0002 0.0000 -1.0000
usemtl (null)
s 1
f 2//1 4//1 3//1 1//1
f 4//1 6//1 5//1 3//1
f 8//1 10//1 9//1 7//1
f 10//1 12//1 11//1 9//1
f 14//1 16//1 15//1 13//1
f 16//1 18//1 17//1 15//1
f 20//1 22//1 21//1 19//1
f 24//1 26//1 25//1 23//1
f 28//1 30//1 29//1 27//1
o BezierCurve.001_BezierCurve.002
v -0.119380 -1.194690 -0.024319
v -0.119363 -1.124358 -0.031625
v -0.034569 -1.150579 -0.024999
v -0.088450 -1.105313 -0.031919
v 0.002275 -1.053779 -0.026492
v -0.066627 -1.039255 -0.032937
v 0.012492 -0.929546 -0.028407
v -0.057919 -0.927764 -0.034656
v 0.008656 -0.780741 -0.030700
v -0.061694 -0.784323 -0.036867
v -0.003484 -0.614412 -0.033265
v -0.073691 -0.620189 -0.039397
v -0.019021 -0.439530 -0.035960
v -0.089204 -0.445599 -0.042088
v -0.033173 -0.265739 -0.038639
v -0.103459 -0.270429 -0.044789
v -0.041221 -0.103140 -0.041146
v -0.111649 -0.104315 -0.047349
v -0.038678 0.037423 -0.043313
v -0.108843 0.043504 -0.049628
v -0.022380 0.143236 -0.044944
v -0.089409 0.164780 -0.051498
v 0.004166 0.200637 -0.045829
v -0.044167 0.251771 -0.052840
v 0.046008 0.216837 -0.046094
v 0.031585 0.285679 -0.053354
v 0.127282 0.216170 -0.045898
v 0.126933 0.286507 -0.053146
v 0.239892 0.216999 -0.045334
v 0.239350 0.287335 -0.052583
v 0.370798 0.218208 -0.044484
v 0.370176 0.288543 -0.051733
v 0.516420 0.219645 -0.043419
v 0.515788 0.289981 -0.050668
v 0.673151 0.221160 -0.042212
v 0.672558 0.291496 -0.049461
v 0.837371 0.222603 -0.040936
v 0.836863 0.292939 -0.048184
v 1.005454 0.223823 -0.039662
v 1.005075 0.294160 -0.046910
v 1.173767 0.224668 -0.038463
v 1.173570 0.295007 -0.045710
v 1.338671 0.224990 -0.037412
v 1.338723 0.295329 -0.044657
v 1.496519 0.224638 -0.036580
v 1.496911 0.294976 -0.043823
v 1.643645 0.223463 -0.036041
v 1.644513 0.293797 -0.043282
v 1.776394 0.221317 -0.035864
v 1.777909 0.291640 -0.043105
v -0.119363 -1.124358 -0.031625
v -0.119360 -1.108830 -0.019020
v -0.088450 -1.105313 -0.031919
v -0.100178 -1.095242 -0.019229
v -0.066627 -1.039255 -0.032937
v -0.081625 -1.035875 -0.020144
v -0.057919 -0.927764 -0.034656
v -0.073245 -0.927157 -0.021820
v -0.061694 -0.784323 -0.036867
v -0.077007 -0.784884 -0.024014
v -0.073691 -0.620189 -0.039397
v -0.088972 -0.621228 -0.026536
v -0.089204 -0.445599 -0.042088
v -0.104480 -0.446701 -0.029227
v -0.103459 -0.270429 -0.044789
v -0.118758 -0.271230 -0.031932
v -0.111649 -0.104315 -0.047349
v -0.126979 -0.104352 -0.034504
v -0.108843 0.043504 -0.049628
v -0.124116 0.045046 -0.036807
v -0.089409 0.164780 -0.051498
v -0.103999 0.169688 -0.038729
v -0.044167 0.251771 -0.052840
v -0.054688 0.263120 -0.040169
v 0.031585 0.285679 -0.053354
v 0.028430 0.300875 -0.040739
v 0.126933 0.286507 -0.053146
v 0.126805 0.302024 -0.040528
v 0.239350 0.287335 -0.052583
v 0.239149 0.302852 -0.039965
v 0.370176 0.288543 -0.051733
v 0.369941 0.304059 -0.039115
v 0.515788 0.289981 -0.050668
v 0.515542 0.305496 -0.038051
v 0.672558 0.291496 -0.049461
v 0.672318 0.307012 -0.036844
v 0.836863 0.292939 -0.048184
v 0.836641 0.308456 -0.035566
v 1.005075 0.294160 -0.046910
v 1.004888 0.309676 -0.034292
v 1.173570 0.295007 -0.045710
v 1.173431 0.310523 -0.033091
v 1.338723 0.295329 -0.044657
v 1.338652 0.310845 -0.032038
v 1.496911 0.294976 -0.043823
v 1.496933 0.310492 -0.031204
v 1.644513 0.293797 -0.043282
v 1.644669 0.309312 -0.030662
v 1.777909 0.291640 -0.043105
v 1.778246 0.307152 -0.030485
v -0.119360 -1.108830 -0.019020
v -0.119358 -1.101524 0.051312
v -0.100178 -1.095242 -0.019229
v -0.104937 -1.090150 0.051137
v -0.081625 -1.035875 -0.020144
v -0.087710 -1.033498 0.050264
v -0.073245 -0.927157 -0.021820
v -0.079463 -0.925905 0.048605
v -0.077007 -0.784884 -0.024014
v -0.083220 -0.784106 0.046419
v -0.088972 -0.621228 -0.026536
v -0.095173 -0.620644 0.043900
v -0.104480 -0.446701 -0.029227
v -0.110679 -0.446143 0.041210
v -0.118758 -0.271230 -0.031932
v -0.124965 -0.270550 0.038502
v -0.126979 -0.104352 -0.034504
v -0.133199 -0.103361 0.035925
v -0.124116 0.045046 -0.036807
v -0.130312 0.046678 0.033612
v -0.103999 0.169688 -0.038729
v -0.109918 0.172686 0.031670
v -0.054688 0.263120 -0.040169
v -0.058956 0.268731 0.030189
v 0.028430 0.300875 -0.040739
v 0.027080 0.308009 0.029598
v 0.126805 0.302024 -0.040528
v 0.126511 0.309271 0.029810
v 0.239149 0.302852 -0.039965
v 0.238684 0.310097 0.030372
v 0.369941 0.304059 -0.039115
v 0.369386 0.311304 0.031221
v 0.515542 0.305496 -0.038051
v 0.514942 0.312741 0.032285
v 0.672318 0.307012 -0.036844
v 0.671707 0.314256 0.033492
v 0.836641 0.308456 -0.035566
v 0.836043 0.315700 0.034770
v 1.004888 0.309676 -0.034292
v 1.004326 0.316921 0.036045
v 1.173431 0.310523 -0.033091
v 1.172931 0.317768 0.037246
v 1.338652 0.310845 -0.032038
v 1.338243 0.318090 0.038299
v 1.496933 0.310492 -0.031204
v 1.496656 0.317737 0.039134
v 1.644669 0.309312 -0.030662
v 1.644580 0.316555 0.039676
v 1.778246 0.307152 -0.030485
v 1.778419 0.314391 0.039854
vn 0.0465 -0.1006 -0.9938
vn 0.0665 -0.0730 -0.9951
vn 0.0667 -0.0728 -0.9951
vn 0.0869 -0.0342 -0.9956
vn 0.0870 -0.0342 -0.9956
vn 0.0880 -0.0177 -0.9959
vn 0.0879 -0.0110 -0.9961
vn 0.0877 -0.0082 -0.9961
vn 0.0876 -0.0079 -0.9961
vn 0.0878 -0.0096 -0.9961
vn 0.0880 -0.0140 -0.9960
vn 0.0878 -0.0230 -0.9958
vn 0.0846 -0.0425 -0.9955
vn 0.0847 -0.0424 -0.9955
vn 0.0588 -0.0778 -0.9952
vn 0.0587 -0.0778 -0.9952
vn 0.0190 -0.1015 -0.9946
vn 0.0188 -0.1015 -0.9946
vn 0.0040 -0.1029 -0.9947
vn 0.0041 -0.1029 -0.9947
vn 0.0066 -0.1025 -0.9947
vn 0.0078 -0.1025 -0.9947
vn 0.0085 -0.1024 -0.9947
vn 0.0086 -0.1024 -0.9947
vn 0.0079 -0.1025 -0.9947
vn 0.0070 -0.1025 -0.9947
vn 0.0058 -0.1025 -0.9947
vn 0.0039 -0.1025 -0.9947
vn 0.0012 -0.1024 -0.9947
vn -0.0003 -0.1024 -0.9947
vn -0.3724 0.5604 -0.7397
vn -0.5160 0.3793 -0.7680
vn -0.5099 0.3883 -0.7676
vn -0.6359 0.1136 -0.7634
vn -0.6358 0.1147 -0.7633
vn -0.6425 0.0046 -0.7662
vn -0.6414 -0.0437 -0.7659
vn -0.6401 -0.0636 -0.7656
vn -0.6399 -0.0663 -0.7656
vn -0.6408 -0.0537 -0.7658
vn -0.6422 -0.0215 -0.7662
vn -0.6403 0.0455 -0.7668
vn -0.6403 0.0456 -0.7668
vn -0.6121 0.1920 -0.7671
vn -0.6118 0.1929 -0.7671
vn -0.4354 0.4504 -0.7794
vn -0.1378 0.6167 -0.7750
vn -0.1393 0.6165 -0.7749
vn -0.0028 0.6327 -0.7744
vn -0.0008 0.6309 -0.7758
vn -0.0006 0.6309 -0.7758
vn -0.0003 0.6309 -0.7758
vn 0.0002 0.6309 -0.7758
vn 0.0009 0.6309 -0.7758
vn 0.0018 0.6309 -0.7758
vn 0.0030 0.6309 -0.7758
vn 0.0046 0.6309 -0.7758
vn 0.0067 0.6309 -0.7758
vn 0.0096 0.6309 -0.7758
vn 0.0112 0.6309 -0.7758
vn -0.5945 0.7989 -0.0905
vn -0.8144 0.5725 -0.0943
vn -0.8127 0.5749 -0.0943
vn -0.9787 0.1846 -0.0893
vn -0.9787 0.1849 -0.0893
vn -0.9958 0.0237 -0.0882
vn -0.9949 -0.0508 -0.0872
vn -0.9929 -0.0817 -0.0867
vn -0.9925 -0.0858 -0.0866
vn -0.9940 -0.0662 -0.0869
vn -0.9960 -0.0163 -0.0877
vn -0.9921 0.0879 -0.0892
vn -0.9445 0.3151 -0.0922
vn -0.9445 0.3153 -0.0922
vn -0.6830 0.7234 -0.1007
vn -0.6831 0.7234 -0.1007
vn -0.2169 0.9708 -0.1023
vn -0.2172 0.9707 -0.1023
vn -0.0093 0.9947 -0.1021
vn -0.0077 0.9947 -0.1025
vn -0.0088 0.9947 -0.1025
vn -0.0089 0.9947 -0.1025
vn -0.0084 0.9947 -0.1025
vn -0.0072 0.9947 -0.1025
vn -0.0053 0.9947 -0.1025
vn -0.0028 0.9947 -0.1025
vn 0.0007 0.9947 -0.1025
vn 0.0055 0.9947 -0.1024
vn 0.0123 0.9947 -0.1024
vn 0.0162 0.9946 -0.1024
usemtl (null)
s 1
f 32//2 34//3 33//4 31//2
f 34//3 36//5 35//6 33//4
f 36//5 38//7 37//7 35//6
f 38//7 40//8 39//8 37//7
f 40//8 42//9 41//9 39//8
f 42//9 44//10 43//10 41//9
f 44//10 46//11 45//11 43//10
f 46//11 48//12 47//12 45//11
f 48//12 50//13 49//13 47//12
f 50//13 52//14 51//15 49//13
f 52//14 54//16 53//17 51//15
f 54//16 56//18 55//19 53//17
f 56//18 58//20 57//21 55//19
f 58//20 60//22 59//22 57//21
f 60//22 62//23 61//23 59//22
f 62//23 64//24 63//24 61//23
f 64//24 66//25 65//25 63//24
f 66//25 68//24 67//24 65//25
f 68//24 70//26 69//26 67//24
f 70//26 72//27 71//27 69//26
f 72//27 74//28 73//28 71//27
f 74//28 76//29 75//29 73//28
f 76//29 78//30 77//30 75//29
f 78//30 80//31 79//31 77//30
f 82//32 84//33 83//34 81//32
f 84//33 86//35 85//36 83//34
f 86//35 88//37 87//37 85//36
f 88//37 90//38 89//38 87//37
f 90//38 92//39 91//39 89//38
f 92//39 94//40 93//40 91//39
f 94//40 96//41 95//41 93//40
f 96//41 98//42 97//42 95//41
f 98//42 100//43 99//44 97//42
f 100//43 102//45 101//46 99//44
f 102//45 104//47 103//47 101//46
f 104//47 106//48 105//49 103//47
f 106//48 108//50 107//50 105//49
f 108//50 110//51 109//51 107//50
f 110//51 112//52 111//52 109//51
f 112//52 114//53 113//53 111//52
f 114//53 116//54 115//54 113//53
f 116//54 118//55 117//55 115//54
f 118//55 120//56 119//56 117//55
f 120//56 122//57 121//57 119//56
f 122//57 124//58 123//58 121//57
f 124//58 126//59 125//59 123//58
f 126//59 128//60 127//60 125//59
f 128//60 130//61 129//61 127//60
f 132//62 134//63 133//64 131//62
f 134//63 136//65 135//66 133//64
f 136//65 138//67 137//67 135//66
f 138//67 140//68 139//68 137//67
f 140//68 142//69 141//69 139//68
f 142//69 144//70 143//70 141//69
f 144//70 146//71 145//71 143//70
f 146//71 148//72 147//72 145//71
f 148//72 150//73 149//73 147//72
f 150//73 152//74 151//75 149//73
f 152//74 154//76 153//77 151//75
f 154//76 156//78 155//79 153//77
f 156//78 158//80 157//80 155//79
f 158//80 160//81 159//81 157//80
f 160//81 162//82 161//82 159//81
f 162//82 164//83 163//83 161//82
f 164//83 166//84 165//84 163//83
f 166//84 168//85 167//85 165//84
f 168//85 170//86 169//86 167//85
f 170//86 172//87 171//87 169//86
f 172//87 174//88 173//88 171//87
f 174//88 176//89 175//89 173//88
f 176//89 178//90 177//90 175//89
f 178//90 180//91 179//91 177//90
