# Blender v2.77 (sub 0) OBJ File: 'arrowsStraight.blend'
# www.blender.org
mtllib straight.mtl
o BezierCurve_BezierCurve.001
v 1.012277 1.293082 0.002166
v 0.976114 1.258556 0.002174
v 0.036081 2.289243 0.001934
v 0.035622 2.239247 0.001946
v -0.960130 1.309289 0.002160
v -0.924607 1.274104 0.002168
v 0.976114 1.258556 0.002174
v 0.961649 1.244745 0.002177
v 0.035622 2.239247 0.001946
v 0.035438 2.219248 0.001951
v -0.924607 1.274104 0.002168
v -0.910398 1.260030 0.002172
v 0.961649 1.244745 0.002177
v 0.925483 1.210216 0.002185
v 0.035438 2.219248 0.001951
v 0.034978 2.169249 0.001962
v -0.910398 1.260030 0.002172
v -0.874873 1.224842 0.002180
v 0.095491 2.223171 0.001950
v 0.045492 2.223501 0.001950
v 0.095528 2.228851 0.001948
v 0.045529 2.229180 0.001948
v 0.045492 2.223501 0.001950
v 0.025492 2.223632 0.001950
v 0.045529 2.229180 0.001948
v 0.025530 2.229312 0.001948
v 0.025492 2.223632 0.001950
v -0.024507 2.223961 0.001949
v 0.025530 2.229312 0.001948
v -0.024469 2.229641 0.001948
vn 0.0000 -0.0002 -1.0000
usemtl (null)
s 1
f 2//1 4//1 3//1 1//1
f 4//1 6//1 5//1 3//1
f 8//1 10//1 9//1 7//1
f 10//1 12//1 11//1 9//1
f 14//1 16//1 15//1 13//1
f 16//1 18//1 17//1 15//1
f 20//1 22//1 21//1 19//1
f 24//1 26//1 25//1 23//1
f 28//1 30//1 29//1 27//1
o BezierCurve.001_BezierCurve.002
v 0.066276 -1.604684 -0.018688
v -0.002742 -1.604668 -0.034066
v 0.066296 -1.521158 -0.019114
v -0.002723 -1.521256 -0.034492
v 0.066324 -1.399817 -0.020296
v -0.002695 -1.399966 -0.035674
v 0.066358 -1.248012 -0.022082
v -0.002660 -1.248185 -0.037460
v 0.066399 -1.073052 -0.024322
v -0.002620 -1.073237 -0.039699
v 0.066443 -0.882225 -0.026864
v -0.002575 -0.882415 -0.042240
v 0.066489 -0.682810 -0.029557
v -0.002529 -0.683001 -0.044934
v 0.066535 -0.482083 -0.032249
v -0.002483 -0.482271 -0.047626
v 0.066580 -0.287321 -0.034791
v -0.002439 -0.287501 -0.050168
v 0.066622 -0.105795 -0.037032
v -0.002396 -0.105959 -0.052409
v 0.066659 0.055229 -0.038819
v -0.002359 0.055091 -0.054197
v 0.066690 0.188504 -0.040003
v -0.002328 0.188418 -0.055381
v 0.066712 0.286860 -0.040432
v -0.002306 0.286738 -0.055810
v 0.066414 0.377555 -0.040228
v -0.002604 0.377243 -0.055606
v 0.065585 0.490166 -0.039664
v -0.003432 0.489681 -0.055042
v 0.064375 0.621070 -0.038813
v -0.004640 0.620517 -0.054192
v 0.062939 0.766690 -0.037748
v -0.006077 0.766131 -0.053128
v 0.061423 0.923418 -0.036541
v -0.007593 0.922900 -0.051920
v 0.059981 1.087633 -0.035265
v -0.009036 1.087198 -0.050643
v 0.058762 1.255710 -0.033992
v -0.010256 1.255399 -0.049369
v 0.057916 1.424015 -0.032793
v -0.011103 1.423878 -0.048169
v 0.057594 1.588910 -0.031742
v -0.011425 1.589009 -0.047117
v 0.057946 1.746746 -0.030910
v -0.011072 1.747167 -0.046283
v 0.059121 1.893855 -0.030370
v -0.009893 1.894727 -0.045742
v 0.061267 2.026581 -0.030194
v -0.007737 2.028065 -0.045565
v -0.002742 -1.604668 -0.034066
v -0.019621 -1.604664 -0.023338
v -0.002723 -1.521256 -0.034492
v -0.019602 -1.521172 -0.023765
v -0.002695 -1.399966 -0.035674
v -0.019574 -1.399847 -0.024946
v -0.002660 -1.248185 -0.037460
v -0.019539 -1.248049 -0.026732
v -0.002620 -1.073237 -0.039699
v -0.019499 -1.073093 -0.028972
v -0.002575 -0.882415 -0.042240
v -0.019455 -0.882267 -0.031513
v -0.002529 -0.683001 -0.044934
v -0.019409 -0.682852 -0.034206
v -0.002483 -0.482271 -0.047626
v -0.019362 -0.482125 -0.036899
v -0.002439 -0.287501 -0.050168
v -0.019318 -0.287360 -0.039441
v -0.002396 -0.105959 -0.052409
v -0.019276 -0.105830 -0.041682
v -0.002359 0.055091 -0.054197
v -0.019238 0.055202 -0.043469
v -0.002328 0.188418 -0.055381
v -0.019207 0.188493 -0.044653
v -0.002306 0.286738 -0.055810
v -0.019185 0.286723 -0.045082
v -0.002604 0.377243 -0.055606
v -0.019483 0.377114 -0.044878
v -0.003432 0.489681 -0.055042
v -0.020310 0.489480 -0.044315
v -0.004640 0.620517 -0.054192
v -0.021518 0.620282 -0.043465
v -0.006077 0.766131 -0.053128
v -0.022955 0.765886 -0.042400
v -0.007593 0.922900 -0.051920
v -0.024471 0.922661 -0.041193
v -0.009036 1.087198 -0.050643
v -0.025914 1.086980 -0.039916
v -0.010256 1.255399 -0.049369
v -0.027135 1.255217 -0.038641
v -0.011103 1.423878 -0.048169
v -0.027982 1.423747 -0.037441
v -0.011425 1.589009 -0.047117
v -0.028304 1.588949 -0.036388
v -0.011072 1.747167 -0.046283
v -0.027951 1.747205 -0.035554
v -0.009893 1.894727 -0.045742
v -0.026771 1.894904 -0.035012
v -0.007737 2.028065 -0.045565
v -0.024611 2.028431 -0.034835
v -0.019621 -1.604664 -0.023338
v -0.034999 -1.604661 0.045680
v -0.019602 -1.521172 -0.023765
v -0.034980 -1.520657 0.045252
v -0.019574 -1.399847 -0.024946
v -0.034952 -1.399101 0.044068
v -0.019539 -1.248049 -0.026732
v -0.034917 -1.247198 0.042280
v -0.019499 -1.073093 -0.028972
v -0.034877 -1.072189 0.040041
v -0.019455 -0.882267 -0.031513
v -0.034833 -0.881338 0.037499
v -0.019409 -0.682852 -0.034206
v -0.034787 -0.681920 0.034806
v -0.019362 -0.482125 -0.036899
v -0.034740 -0.481208 0.032113
v -0.019318 -0.287360 -0.039441
v -0.034696 -0.286481 0.029571
v -0.019276 -0.105830 -0.041682
v -0.034653 -0.105017 0.027332
v -0.019238 0.055202 -0.043469
v -0.034616 0.055896 0.025545
v -0.019207 0.188493 -0.044653
v -0.034585 0.188954 0.024363
v -0.019185 0.286723 -0.045082
v -0.034563 0.286773 0.023937
v -0.019483 0.377114 -0.044878
v -0.034859 0.376782 0.024140
v -0.020310 0.489480 -0.044315
v -0.035686 0.488955 0.024702
v -0.021518 0.620282 -0.043465
v -0.036892 0.619659 0.025551
v -0.022955 0.765886 -0.042400
v -0.038329 0.765218 0.026616
v -0.024471 0.922661 -0.041193
v -0.039845 0.921986 0.027823
v -0.025914 1.086980 -0.039916
v -0.041288 1.086327 0.029100
v -0.027135 1.255217 -0.038641
v -0.042509 1.254615 0.030375
v -0.027982 1.423747 -0.037441
v -0.043356 1.423228 0.031576
v -0.028304 1.588949 -0.036388
v -0.043679 1.588550 0.032630
v -0.027951 1.747205 -0.035554
v -0.043325 1.746975 0.033465
v -0.026771 1.894904 -0.035012
v -0.042143 1.894917 0.034007
v -0.024611 2.028431 -0.034835
v -0.039978 2.028778 0.034185
vn 0.2175 -0.0050 -0.9760
vn 0.2175 -0.0073 -0.9760
vn 0.2175 -0.0105 -0.9760
vn 0.2175 -0.0120 -0.9760
vn 0.2175 -0.0128 -0.9760
vn 0.2175 -0.0131 -0.9760
vn 0.2175 -0.0132 -0.9760
vn 0.2175 -0.0129 -0.9760
vn 0.2175 -0.0124 -0.9760
vn 0.2175 -0.0115 -0.9760
vn 0.2175 -0.0098 -0.9760
vn 0.2175 -0.0065 -0.9760
vn 0.2175 -0.0007 -0.9760
vn 0.2174 0.0047 -0.9760
vn 0.2174 0.0074 -0.9760
vn 0.2174 0.0088 -0.9760
vn 0.2174 0.0094 -0.9760
vn 0.2174 0.0096 -0.9760
vn 0.2174 0.0092 -0.9760
vn 0.2174 0.0085 -0.9760
vn 0.2174 0.0073 -0.9760
vn 0.2174 0.0056 -0.9760
vn 0.2174 0.0032 -0.9760
vn 0.2174 -0.0002 -0.9761
vn 0.2174 -0.0022 -0.9761
vn -0.5364 -0.0042 -0.8440
vn -0.5364 -0.0061 -0.8439
vn -0.5364 -0.0089 -0.8439
vn -0.5364 -0.0102 -0.8439
vn -0.5364 -0.0109 -0.8439
vn -0.5364 -0.0112 -0.8439
vn -0.5364 -0.0110 -0.8439
vn -0.5364 -0.0106 -0.8439
vn -0.5364 -0.0098 -0.8439
vn -0.5364 -0.0083 -0.8439
vn -0.5364 -0.0055 -0.8439
vn -0.5364 -0.0017 -0.8440
vn -0.5364 0.0002 -0.8440
vn -0.5364 0.0004 -0.8440
vn -0.5364 0.0007 -0.8439
vn -0.5364 0.0011 -0.8439
vn -0.5364 0.0016 -0.8439
vn -0.5364 0.0022 -0.8439
vn -0.5364 0.0029 -0.8439
vn -0.5364 0.0038 -0.8439
vn -0.5364 0.0050 -0.8439
vn -0.5364 0.0065 -0.8439
vn -0.5364 0.0086 -0.8439
vn -0.5364 0.0098 -0.8439
vn -0.9760 -0.0009 -0.2175
vn -0.9760 -0.0014 -0.2175
vn -0.9760 -0.0021 -0.2174
vn -0.9760 -0.0024 -0.2174
vn -0.9760 -0.0026 -0.2174
vn -0.9760 -0.0027 -0.2174
vn -0.9760 -0.0025 -0.2174
vn -0.9760 -0.0023 -0.2174
vn -0.9760 -0.0019 -0.2174
vn -0.9760 -0.0012 -0.2174
vn -0.9760 -0.0017 -0.2174
vn -0.9760 -0.0044 -0.2175
vn -0.9760 -0.0068 -0.2175
vn -0.9760 -0.0078 -0.2175
vn -0.9760 -0.0079 -0.2175
vn -0.9760 -0.0073 -0.2175
vn -0.9760 -0.0061 -0.2175
vn -0.9760 -0.0044 -0.2174
vn -0.9761 0.0014 -0.2174
vn -0.9760 0.0060 -0.2174
vn -0.9760 0.0123 -0.2174
vn -0.9760 0.0161 -0.2174
usemtl (null)
s 1
f 32//2 34//3 33//3 31//2
f 34//3 36//4 35//4 33//3
f 36//4 38//5 37//5 35//4
f 38//5 40//6 39//6 37//5
f 40//6 42//7 41//7 39//6
f 42//7 44//8 43//8 41//7
f 44//8 46//9 45//9 43//8
f 46//9 48//10 47//10 45//9
f 48//10 50//11 49//11 47//10
f 50//11 52//12 51//12 49//11
f 52//12 54//13 53//13 51//12
f 54//13 56//14 55//14 53//13
f 56//14 58//15 57//15 55//14
f 58//15 60//16 59//16 57//15
f 60//16 62//17 61//17 59//16
f 62//17 64//18 63//18 61//17
f 64//18 66//19 65//19 63//18
f 66//19 68//20 67//20 65//19
f 68//20 70//21 69//21 67//20
f 70//21 72//22 71//22 69//21
f 72//22 74//23 73//23 71//22
f 74//23 76//24 75//24 73//23
f 76//24 78//25 77//25 75//24
f 78//25 80//26 79//26 77//25
f 82//27 84//28 83//28 81//27
f 84//28 86//29 85//29 83//28
f 86//29 88//30 87//30 85//29
f 88//30 90//31 89//31 87//30
f 90//31 92//32 91//32 89//31
f 92//32 94//32 93//32 91//32
f 94//32 96//33 95//33 93//32
f 96//33 98//34 97//34 95//33
f 98//34 100//35 99//35 97//34
f 100//35 102//36 101//36 99//35
f 102//36 104//37 103//37 101//36
f 104//37 106//38 105//38 103//37
f 106//38 108//39 107//39 105//38
f 108//39 110//40 109//40 107//39
f 110//40 112//41 111//41 109//40
f 112//41 114//42 113//42 111//41
f 114//42 116//43 115//43 113//42
f 116//43 118//44 117//44 115//43
f 118//44 120//45 119//45 117//44
f 120//45 122//46 121//46 119//45
f 122//46 124//47 123//47 121//46
f 124//47 126//48 125//48 123//47
f 126//48 128//49 127//49 125//48
f 128//49 130//50 129//50 127//49
f 132//51 134//52 133//52 131//51
f 134//52 136//53 135//53 133//52
f 136//53 138//54 137//54 135//53
f 138//54 140//55 139//55 137//54
f 140//55 142//56 141//56 139//55
f 142//56 144//56 143//56 141//56
f 144//56 146//55 145//55 143//56
f 146//55 148//57 147//57 145//55
f 148//57 150//58 149//58 147//57
f 150//58 152//59 151//59 149//58
f 152//59 154//60 153//60 151//59
f 154//60 156//61 155//61 153//60
f 156//61 158//62 157//62 155//61
f 158//62 160//63 159//63 157//62
f 160//63 162//64 161//64 159//63
f 162//64 164//65 163//65 161//64
f 164//65 166//66 165//66 163//65
f 166//66 168//67 167//67 165//66
f 168//67 170//68 169//68 167//67
f 170//68 172//59 171//59 169//68
f 172//59 174//69 173//69 171//59
f 174//69 176//70 175//70 173//69
f 176//70 178//71 177//71 175//70
f 178//71 180//72 179//72 177//71
