# Blender v2.77 (sub 0) OBJ File: 'arrowsStraightRight.blend'
# www.blender.org
mtllib straightRight.mtl
o BezierCurve_BezierCurve.001
v 0.142466 0.321905 0.002166
v 0.176993 0.285743 0.002174
v -0.853695 -0.654292 0.001934
v -0.803699 -0.654751 0.001945
v 0.126261 -1.650502 0.002161
v 0.161445 -1.614979 0.002169
v 0.176993 0.285743 0.002174
v 0.190804 0.271277 0.002177
v -0.803699 -0.654751 0.001945
v -0.783699 -0.654934 0.001950
v 0.161445 -1.614979 0.002169
v 0.175520 -1.600770 0.002172
v 0.190804 0.271277 0.002177
v 0.225332 0.235111 0.002185
v -0.783699 -0.654934 0.001950
v -0.733700 -0.655394 0.001962
v 0.175520 -1.600770 0.002172
v 0.210707 -1.565245 0.002180
v -0.787623 -0.594881 0.001949
v -0.787952 -0.644880 0.001949
v -0.793302 -0.594844 0.001948
v -0.793631 -0.644843 0.001948
v -0.787952 -0.644880 0.001949
v -0.788083 -0.664880 0.001949
v -0.793631 -0.644843 0.001948
v -0.793763 -0.664842 0.001948
v -0.788083 -0.664880 0.001949
v -0.788413 -0.714879 0.001949
v -0.793763 -0.664842 0.001948
v -0.794092 -0.714841 0.001948
vn 0.0002 0.0000 -1.0000
usemtl (null)
s 1
f 2//1 4//1 3//1 1//1
f 4//1 6//1 5//1 3//1
f 8//1 10//1 9//1 7//1
f 10//1 12//1 11//1 9//1
f 14//1 16//1 15//1 13//1
f 16//1 18//1 17//1 15//1
f 20//1 22//1 21//1 19//1
f 24//1 26//1 25//1 23//1
f 28//1 30//1 29//1 27//1
o BezierCurve.001_BezierCurve.002
v 1.385563 -2.254801 -0.024876
v 1.385547 -2.325216 -0.031335
v 1.370703 -2.240215 -0.025072
v 1.315875 -2.284345 -0.031881
v 1.348315 -2.170303 -0.026006
v 1.279840 -2.186418 -0.033190
v 1.333537 -2.043870 -0.027696
v 1.263400 -2.049073 -0.035026
v 1.329120 -1.879388 -0.029895
v 1.258799 -1.879960 -0.037287
v 1.331700 -1.690512 -0.032420
v 1.261393 -1.689173 -0.039838
v 1.337198 -1.489243 -0.035111
v 1.266896 -1.487650 -0.042531
v 1.341410 -1.287007 -0.037814
v 1.271089 -1.286617 -0.045219
v 1.340063 -1.094843 -0.040384
v 1.269786 -1.097500 -0.047747
v 1.328679 -0.923156 -0.042679
v 1.258908 -0.932045 -0.049959
v 1.301694 -0.780678 -0.044584
v 1.234925 -0.802848 -0.051687
v 1.247250 -0.673864 -0.046012
v 1.197504 -0.723663 -0.052745
v 1.159124 -0.629333 -0.046592
v 1.143385 -0.697962 -0.053096
v 1.057994 -0.628438 -0.046378
v 1.058346 -0.698847 -0.052897
v 0.945385 -0.629268 -0.045814
v 0.945930 -0.699675 -0.052334
v 0.814478 -0.630476 -0.044963
v 0.815105 -0.700883 -0.051484
v 0.668856 -0.631913 -0.043899
v 0.669494 -0.702320 -0.050420
v 0.512124 -0.633428 -0.042692
v 0.512723 -0.703835 -0.049212
v 0.347904 -0.634871 -0.041415
v 0.348418 -0.705279 -0.047935
v 0.179821 -0.636090 -0.040142
v 0.180205 -0.706499 -0.046661
v 0.011507 -0.636936 -0.038944
v 0.011709 -0.707346 -0.045461
v -0.153399 -0.637258 -0.037892
v -0.153446 -0.707668 -0.044408
v -0.311248 -0.636906 -0.037061
v -0.311636 -0.707315 -0.043575
v -0.458376 -0.635731 -0.036521
v -0.459242 -0.706136 -0.043034
v -0.591127 -0.633585 -0.036344
v -0.592643 -0.703979 -0.042856
v 1.385547 -2.325216 -0.031335
v 1.385543 -2.340591 -0.018543
v 1.315875 -2.284345 -0.031881
v 1.303755 -2.293910 -0.019167
v 1.279840 -2.186418 -0.033190
v 1.264704 -2.189790 -0.020559
v 1.263400 -2.049073 -0.035026
v 1.247897 -2.050033 -0.022427
v 1.258799 -1.879960 -0.037287
v 1.243255 -1.879896 -0.024702
v 1.261393 -1.689173 -0.039838
v 1.245852 -1.688687 -0.027258
v 1.266896 -1.487650 -0.042531
v 1.251356 -1.487107 -0.029953
v 1.271089 -1.286617 -0.045219
v 1.255545 -1.286341 -0.032637
v 1.269786 -1.097500 -0.047747
v 1.254253 -1.097897 -0.035156
v 1.258908 -0.932045 -0.049959
v 1.243485 -0.933820 -0.037350
v 1.234925 -0.802848 -0.051687
v 1.220166 -0.807558 -0.039038
v 1.197504 -0.723663 -0.052745
v 1.186508 -0.734480 -0.040015
v 1.143385 -0.697962 -0.053096
v 1.139921 -0.712950 -0.040315
v 1.058346 -0.698847 -0.052897
v 1.058474 -0.714232 -0.040119
v 0.945930 -0.699675 -0.052334
v 0.946132 -0.715060 -0.039557
v 0.815105 -0.700883 -0.051484
v 0.815341 -0.716267 -0.038707
v 0.669494 -0.702320 -0.050420
v 0.669741 -0.717704 -0.037642
v 0.512723 -0.703835 -0.049212
v 0.512964 -0.719220 -0.036435
v 0.348418 -0.705279 -0.047935
v 0.348639 -0.720663 -0.035158
v 0.180205 -0.706499 -0.046661
v 0.180393 -0.721884 -0.033883
v 0.011709 -0.707346 -0.045461
v 0.011848 -0.722731 -0.032683
v -0.153446 -0.707668 -0.044408
v -0.153374 -0.723053 -0.031630
v -0.311636 -0.707315 -0.043575
v -0.311658 -0.722700 -0.030796
v -0.459242 -0.706136 -0.043034
v -0.459397 -0.721519 -0.030254
v -0.592643 -0.703979 -0.042856
v -0.592978 -0.719360 -0.030076
v 1.385543 -2.340591 -0.018543
v 1.385542 -2.347049 0.051872
v 1.303755 -2.293910 -0.019167
v 1.297987 -2.297603 0.051211
v 1.264704 -2.189790 -0.020559
v 1.257501 -2.190535 0.049780
v 1.247897 -2.050033 -0.022427
v 1.240517 -2.049630 0.047896
v 1.243255 -1.879896 -0.024702
v 1.235857 -1.879006 0.045615
v 1.245852 -1.688687 -0.027258
v 1.238454 -1.687596 0.043056
v 1.251356 -1.487107 -0.029953
v 1.243960 -1.485989 0.040361
v 1.255545 -1.286341 -0.032637
v 1.248147 -1.285349 0.037679
v 1.254253 -1.097897 -0.035156
v 1.246859 -1.097226 0.035164
v 1.243485 -0.933820 -0.037350
v 1.236145 -0.933804 0.032979
v 1.220166 -0.807558 -0.039038
v 1.213141 -0.808940 0.031310
v 1.186508 -0.734480 -0.040015
v 1.181274 -0.738769 0.030371
v 1.139921 -0.712950 -0.040315
v 1.138339 -0.719261 0.030096
v 1.058474 -0.714232 -0.040119
v 1.058764 -0.720750 0.030290
v 0.946132 -0.715060 -0.039557
v 0.946591 -0.721577 0.030852
v 0.815341 -0.716267 -0.038707
v 0.815889 -0.722783 0.031701
v 0.669741 -0.717704 -0.037642
v 0.670332 -0.724220 0.032765
v 0.512964 -0.719220 -0.036435
v 0.513569 -0.725735 0.033972
v 0.348639 -0.720663 -0.035158
v 0.349232 -0.727179 0.035249
v 0.180393 -0.721884 -0.033883
v 0.180951 -0.728400 0.036524
v 0.011848 -0.722731 -0.032683
v 0.012346 -0.729247 0.037725
v -0.153374 -0.723053 -0.031630
v -0.152965 -0.729569 0.038779
v -0.311658 -0.722700 -0.030796
v -0.311377 -0.729216 0.039613
v -0.459397 -0.721519 -0.030254
v -0.459299 -0.728034 0.040156
v -0.592978 -0.719360 -0.030076
v -0.593134 -0.725870 0.040334
vn 0.0641 0.0844 -0.9944
vn 0.0834 0.0529 -0.9951
vn 0.0844 0.0512 -0.9951
vn 0.1032 0.0106 -0.9946
vn 0.1032 0.0105 -0.9946
vn 0.1045 -0.0057 -0.9945
vn 0.1046 -0.0126 -0.9944
vn 0.1046 -0.0154 -0.9944
vn 0.1046 -0.0158 -0.9944
vn 0.1046 -0.0140 -0.9944
vn 0.1046 -0.0095 -0.9944
vn 0.1039 -0.0001 -0.9946
vn 0.1001 0.0202 -0.9948
vn 0.0726 0.0595 -0.9956
vn 0.0229 0.0891 -0.9958
vn 0.0228 0.0891 -0.9958
vn -0.0039 0.0928 -0.9957
vn -0.0065 0.0921 -0.9957
vn -0.0078 0.0921 -0.9957
vn -0.0084 0.0921 -0.9957
vn -0.0085 0.0921 -0.9957
vn -0.0079 0.0921 -0.9957
vn -0.0070 0.0921 -0.9957
vn -0.0058 0.0921 -0.9957
vn -0.0040 0.0921 -0.9957
vn -0.0014 0.0921 -0.9957
vn 0.0002 0.0921 -0.9957
vn -0.3349 -0.5892 -0.7353
vn -0.4820 -0.4188 -0.7696
vn -0.4786 -0.4233 -0.7692
vn -0.6151 -0.1595 -0.7721
vn -0.6150 -0.1601 -0.7721
vn -0.6279 -0.0565 -0.7762
vn -0.6293 -0.0147 -0.7770
vn -0.6291 0.0024 -0.7773
vn -0.6290 0.0047 -0.7773
vn -0.6292 -0.0060 -0.7772
vn -0.6289 -0.0332 -0.7768
vn -0.6250 -0.0885 -0.7756
vn -0.6034 -0.2038 -0.7710
vn -0.6032 -0.2045 -0.7709
vn -0.4385 -0.4489 -0.7785
vn -0.4384 -0.4490 -0.7785
vn -0.1339 -0.6258 -0.7684
vn -0.1357 -0.6255 -0.7683
vn 0.0037 -0.6416 -0.7670
vn 0.0009 -0.6389 -0.7693
vn 0.0008 -0.6389 -0.7693
vn 0.0005 -0.6389 -0.7693
vn -0.0000 -0.6389 -0.7692
vn -0.0008 -0.6389 -0.7692
vn -0.0017 -0.6389 -0.7692
vn -0.0030 -0.6389 -0.7692
vn -0.0045 -0.6389 -0.7692
vn -0.0067 -0.6389 -0.7692
vn -0.0096 -0.6389 -0.7692
vn -0.0113 -0.6389 -0.7692
vn -0.4915 -0.8669 -0.0826
vn -0.7564 -0.6471 -0.0954
vn -0.7555 -0.6482 -0.0954
vn -0.9661 -0.2377 -0.1005
vn -0.9661 -0.2378 -0.1005
vn -0.9918 -0.0745 -0.1035
vn -0.9945 -0.0082 -0.1045
vn -0.9943 0.0189 -0.1049
vn -0.9942 0.0225 -0.1049
vn -0.9945 0.0056 -0.1047
vn -0.9938 -0.0374 -0.1041
vn -0.9869 -0.1243 -0.1028
vn -0.9485 -0.3006 -0.0993
vn -0.9485 -0.3008 -0.0993
vn -0.7033 -0.7041 -0.0980
vn -0.2036 -0.9747 -0.0916
vn -0.2041 -0.9746 -0.0916
vn 0.0119 -0.9957 -0.0914
vn 0.0077 -0.9957 -0.0922
vn 0.0089 -0.9957 -0.0922
vn 0.0090 -0.9957 -0.0922
vn 0.0085 -0.9957 -0.0922
vn 0.0073 -0.9957 -0.0922
vn 0.0054 -0.9957 -0.0922
vn 0.0028 -0.9957 -0.0922
vn -0.0007 -0.9957 -0.0921
vn -0.0055 -0.9957 -0.0921
vn -0.0122 -0.9957 -0.0921
vn -0.0162 -0.9956 -0.0921
usemtl (null)
s 1
f 32//2 34//3 33//4 31//2
f 34//3 36//5 35//6 33//4
f 36//5 38//7 37//7 35//6
f 38//7 40//8 39//8 37//7
f 40//8 42//9 41//9 39//8
f 42//9 44//10 43//10 41//9
f 44//10 46//11 45//11 43//10
f 46//11 48//12 47//12 45//11
f 48//12 50//13 49//13 47//12
f 50//13 52//14 51//14 49//13
f 52//14 54//15 53//15 51//14
f 54//15 56//16 55//17 53//15
f 56//16 58//18 57//18 55//17
f 58//18 60//19 59//19 57//18
f 60//19 62//20 61//20 59//19
f 62//20 64//21 63//21 61//20
f 64//21 66//22 65//22 63//21
f 66//22 68//21 67//21 65//22
f 68//21 70//23 69//23 67//21
f 70//23 72//24 71//24 69//23
f 72//24 74//25 73//25 71//24
f 74//25 76//26 75//26 73//25
f 76//26 78//27 77//27 75//26
f 78//27 80//28 79//28 77//27
f 82//29 84//30 83//31 81//29
f 84//30 86//32 85//33 83//31
f 86//32 88//34 87//34 85//33
f 88//34 90//35 89//35 87//34
f 90//35 92//36 91//36 89//35
f 92//36 94//37 93//37 91//36
f 94//37 96//38 95//38 93//37
f 96//38 98//39 97//39 95//38
f 98//39 100//40 99//40 97//39
f 100//40 102//41 101//42 99//40
f 102//41 104//43 103//44 101//42
f 104//43 106//45 105//46 103//44
f 106//45 108//47 107//47 105//46
f 108//47 110//48 109//48 107//47
f 110//48 112//49 111//49 109//48
f 112//49 114//50 113//50 111//49
f 114//50 116//51 115//51 113//50
f 116//51 118//52 117//52 115//51
f 118//52 120//53 119//53 117//52
f 120//53 122//54 121//54 119//53
f 122//54 124//55 123//55 121//54
f 124//55 126//56 125//56 123//55
f 126//56 128//57 127//57 125//56
f 128//57 130//58 129//58 127//57
f 132//59 134//60 133//61 131//59
f 134//60 136//62 135//63 133//61
f 136//62 138//64 137//64 135//63
f 138//64 140//65 139//65 137//64
f 140//65 142//66 141//66 139//65
f 142//66 144//67 143//67 141//66
f 144//67 146//68 145//68 143//67
f 146//68 148//69 147//69 145//68
f 148//69 150//70 149//70 147//69
f 150//70 152//71 151//72 149//70
f 152//71 154//73 153//73 151//72
f 154//73 156//74 155//75 153//73
f 156//74 158//76 157//76 155//75
f 158//76 160//77 159//77 157//76
f 160//77 162//78 161//78 159//77
f 162//78 164//79 163//79 161//78
f 164//79 166//80 165//80 163//79
f 166//80 168//81 167//81 165//80
f 168//81 170//82 169//82 167//81
f 170//82 172//83 171//83 169//82
f 172//83 174//84 173//84 171//83
f 174//84 176//85 175//85 173//84
f 176//85 178//86 177//86 175//85
f 178//86 180//87 179//87 177//86
